<?xml version="1.0" encoding="UTF-8"?>
<svg id="Layer_2" data-name="Layer 2" xmlns="http://www.w3.org/2000/svg" viewBox="0 0 390.04 43.07">
  <defs>
    <style>
      .cls-1 {
        fill: #6db8be;
      }
    </style>
  </defs>
  <g id="_ÎÓÈ_1" data-name="—ÎÓÈ_1">
    <path class="cls-1" d="M300.64,43.07c-11.64,0-22.55-4.75-30.72-13.37-5.93-6.25-13.77-9.7-22.09-9.7s-16.16,3.44-22.09,9.7c-8.17,8.62-19.09,13.37-30.72,13.37s-22.55-4.75-30.72-13.37c-5.93-6.25-13.77-9.7-22.09-9.7s-16.16,3.44-22.09,9.7c-8.17,8.62-19.08,13.37-30.72,13.37s-22.55-4.75-30.72-13.37c-5.93-6.25-13.77-9.7-22.09-9.7s-16.16,3.44-22.09,9.7L0,15.93C9.75,5.66,22.74,0,36.6,0s26.85,5.66,36.6,15.93c4.36,4.6,10.12,7.13,16.21,7.13s11.85-2.53,16.21-7.13C115.36,5.66,128.36,0,142.21,0s26.85,5.66,36.6,15.93c4.36,4.6,10.12,7.13,16.21,7.13s11.85-2.53,16.21-7.13c9.75-10.28,22.74-15.94,36.6-15.94s26.85,5.66,36.6,15.93c4.36,4.6,10.12,7.13,16.21,7.13,6.09,0,11.85-2.53,16.21-7.13,9.75-10.28,22.74-15.94,36.6-15.94s26.85,5.66,36.6,15.93l-14.51,13.76c-5.93-6.25-13.77-9.7-22.09-9.7s-16.16,3.44-22.09,9.7c-8.17,8.62-19.08,13.37-30.72,13.37Z"/>
  </g>
</svg>