<?xml version="1.0" encoding="UTF-8"?>
<svg id="Layer_2" data-name="Layer 2" xmlns="http://www.w3.org/2000/svg" xmlns:xlink="http://www.w3.org/1999/xlink" viewBox="0 0 225 225">
  <defs>
    <style>
      .cls-1 {
        fill: none;
      }

      .cls-2 {
        clip-path: url(#clippath);
      }
    </style>
    <clipPath id="clippath">
      <path class="cls-1" d="M225,112.5c0-15.93-9.87-29.74-24-36.66,5.11-14.89,2.32-31.63-8.95-42.89-11.26-11.26-28.01-14.06-42.89-8.95C142.24,9.87,128.43,0,112.5,0s-29.74,9.87-36.66,24c-14.89-5.11-31.63-2.32-42.89,8.95-11.26,11.26-14.06,28.01-8.95,42.89C9.87,82.76,0,96.57,0,112.5s9.87,29.74,24,36.66c-5.11,14.89-2.32,31.63,8.95,42.89,11.26,11.26,28.01,14.06,42.89,8.95,6.91,14.14,20.73,24,36.66,24s29.74-9.87,36.66-24c14.89,5.11,31.63,2.32,42.89-8.95,11.26-11.26,14.06-28.01,8.95-42.89,14.14-6.91,24-20.73,24-36.66Z"/>
    </clipPath>
  </defs>
  <g id="_ÎÓÈ_1" data-name="—ÎÓÈ_1">
    <g class="cls-2">
      <image width="2048" height="1152" transform="translate(-117.56 -1.72) scale(.21)" xlink:href="../../../f0586391-c689-4859-bc4f-2962c48cd3d0_TABLET_LANDSCAPE_LARGE_16_9.jpg"/>
    </g>
  </g>
</svg>