<?xml version="1.0" encoding="UTF-8"?>
<svg id="Layer_2" data-name="Layer 2" xmlns="http://www.w3.org/2000/svg" viewBox="0 0 785.54 378.32">
  <defs>
    <style>
      .cls-1 {
        fill: #f08eac;
      }
    </style>
  </defs>
  <g id="Layer_1-2" data-name="Layer 1">
    <path class="cls-1" d="M203.05,374.2c-19.9-2.19-50.71-5.32-81.44-9.1-15.17-1.86-30.15-5-44.69-10.03-33.78-11.69-55.82-34.81-67.04-68.49C3.59,267.66,1.06,248.08.26,228.25c-.74-18.29.09-36.55,2.2-54.74,2.71-23.4,7.19-46.44,14.8-68.78,4.95-14.53,11.35-28.37,19.77-41.26,13.73-21.02,32.43-35.73,55.83-44.64,16.14-6.15,32.91-9.62,50.02-11.32C190.41,2.79,238.09.18,285.84,0c35.8-.13,71.6,1.11,107.41,1.49,23.86.25,47.73.04,71.59.08,22.74.04,45.49.38,68.23.15,26.53-.28,52.93,1.75,79.34,3.62,19.34,1.37,38.66,3.38,57.86,6,13.64,1.86,27.04,5.26,40.12,9.83,31.36,10.98,52.07,32.44,63.25,63.44,6.25,17.33,9.27,35.32,10.7,53.61,2.5,31.75.94,63.38-3.4,94.88-2.35,17.05-6.59,33.68-12.71,49.78-6.17,16.22-14.87,30.88-27.39,43.1-9.49,9.25-20.57,15.98-32.78,20.98-14.23,5.83-29.05,9.43-44.19,11.93-22.82,3.78-45.84,5.7-68.85,7.78-15.95,1.45-31.92,2.78-47.9,3.91-23.79,1.68-47.6,3.19-71.41,4.66-43.96,2.72-87.98,2.96-132,3.05-43.27.09-86.54-.58-140.67-4.11Z"/>
  </g>
</svg>