<?xml version="1.0" encoding="UTF-8"?>
<svg id="Layer_1" data-name="Layer 1" xmlns="http://www.w3.org/2000/svg" viewBox="0 0 764.39 764.39">
  <defs>
    <style>
      .cls-1 {
        fill: #e0572c;
      }
    </style>
  </defs>
  <path class="cls-1" d="M764.39,382.19c0-44.13-43.37-79.9-130.38-79.9-25.61,0-57.95,5.28-90.84,13.22,28.87-17.65,55.48-36.78,73.58-54.89,61.52-61.52,66.9-117.48,35.69-148.68-31.2-31.2-87.16-25.83-148.68,35.69-18.1,18.1-37.24,44.71-54.89,73.58,7.94-32.9,13.22-65.24,13.22-90.84C462.09,43.37,426.32,0,382.19,0s-79.9,43.37-79.9,130.38c0,25.6,5.29,57.95,13.22,90.84-17.65-28.87-36.79-55.48-54.89-73.58-61.52-61.52-117.48-66.9-148.68-35.69-31.2,31.2-25.83,87.16,35.69,148.68,18.1,18.11,44.71,37.24,73.58,54.89-32.9-7.93-65.24-13.22-90.84-13.22C43.37,302.3,0,338.07,0,382.19s43.37,79.9,130.37,79.9c25.61,0,57.95-5.28,90.84-13.22-28.87,17.65-55.48,36.78-73.58,54.89-61.52,61.52-66.9,117.48-35.69,148.68,31.2,31.2,87.16,25.83,148.68-35.69,18.1-18.11,37.24-44.71,54.89-73.58-7.94,32.9-13.22,65.24-13.22,90.84,0,87.01,35.77,130.38,79.9,130.38s79.9-43.37,79.9-130.38c0-25.6-5.29-57.95-13.22-90.84,17.65,28.87,36.79,55.48,54.89,73.58,61.52,61.52,117.48,66.9,148.68,35.69,31.2-31.2,25.83-87.16-35.69-148.68-18.1-18.11-44.71-37.24-73.58-54.89,32.9,7.94,65.24,13.22,90.84,13.22,87.01,0,130.38-35.77,130.38-79.9Z"/>
</svg>